<svg xmlns="http://www.w3.org/2000/svg" viewBox="0 0 56 56" width="56" height="56">
  <defs>
    <radialGradient id="caura" cx="50%" cy="50%" r="50%">
      <stop offset="55%" stop-color="#ff5252" stop-opacity="0"/>
      <stop offset="100%" stop-color="#ff5252" stop-opacity="0.4"/>
    </radialGradient>
    <radialGradient id="cbody" cx="50%" cy="35%" r="65%">
      <stop offset="0%" stop-color="#5b3f8f"/>
      <stop offset="100%" stop-color="#2e2150"/>
    </radialGradient>
  </defs>
  <circle cx="28" cy="28" r="27" fill="url(#caura)"/>
  <path d="M10 36 q4 12 8 2 q4 12 8 2 q4 12 8 2 q4 12 8 -2 L46 30 L10 30 Z" fill="url(#cbody)"/>
  <circle cx="28" cy="26" r="19" fill="url(#cbody)" stroke="#1c1436" stroke-width="2"/>
  <circle cx="21" cy="24" r="5.5" fill="#fff"/>
  <circle cx="35" cy="24" r="5.5" fill="#fff"/>
  <circle cx="22" cy="25" r="2.8" fill="#ffca28"/>
  <circle cx="34" cy="25" r="2.8" fill="#ffca28"/>
  <circle cx="22" cy="25" r="1.2" fill="#2b2b2b"/>
  <circle cx="34" cy="25" r="1.2" fill="#2b2b2b"/>
  <path d="M16 17 L25 21" stroke="#1c1436" stroke-width="2" stroke-linecap="round"/>
  <path d="M40 17 L31 21" stroke="#1c1436" stroke-width="2" stroke-linecap="round"/>
  <path d="M24 33 Q28 30 32 33" stroke="#1c1436" stroke-width="1.8" fill="none" stroke-linecap="round"/>
</svg>
