<svg xmlns="http://www.w3.org/2000/svg" viewBox="0 0 56 56" width="56" height="56">
  <defs>
    <radialGradient id="faura" cx="50%" cy="50%" r="50%">
      <stop offset="55%" stop-color="#69f0ae" stop-opacity="0"/>
      <stop offset="100%" stop-color="#69f0ae" stop-opacity="0.4"/>
    </radialGradient>
    <radialGradient id="fbody" cx="50%" cy="35%" r="65%">
      <stop offset="0%" stop-color="#7fe3c4"/>
      <stop offset="100%" stop-color="#2fa389"/>
    </radialGradient>
  </defs>
  <circle cx="28" cy="28" r="27" fill="url(#faura)"/>
  <path d="M10 36 q4 12 8 2 q4 12 8 2 q4 12 8 2 q4 12 8 -2 L46 30 L10 30 Z" fill="url(#fbody)"/>
  <circle cx="28" cy="26" r="19" fill="url(#fbody)" stroke="#1f7a64" stroke-width="2"/>
  <circle cx="21" cy="24" r="5.5" fill="#fff"/>
  <circle cx="35" cy="24" r="5.5" fill="#fff"/>
  <circle cx="22" cy="24.5" r="2.8" fill="#2b2b2b"/>
  <circle cx="34" cy="24.5" r="2.8" fill="#2b2b2b"/>
  <circle cx="23" cy="23.5" r="0.9" fill="#fff"/>
  <circle cx="35" cy="23.5" r="0.9" fill="#fff"/>
  <path d="M21 31 Q28 38 35 31" stroke="#1f7a64" stroke-width="2" fill="none" stroke-linecap="round"/>
  <circle cx="17" cy="29" r="2.4" fill="#ff9eb5" opacity="0.7"/>
  <circle cx="39" cy="29" r="2.4" fill="#ff9eb5" opacity="0.7"/>
</svg>
