<svg xmlns="http://www.w3.org/2000/svg" viewBox="0 0 90 90" width="90" height="90">
  <defs>
    <radialGradient id="fgl" cx="50%" cy="50%" r="50%">
      <stop offset="0%" stop-color="#7e6bb0" stop-opacity="0.5"/>
      <stop offset="100%" stop-color="#7e6bb0" stop-opacity="0"/>
    </radialGradient>
  </defs>
  <ellipse cx="45" cy="62" rx="40" ry="22" fill="#6b6470" stroke="#4a4550" stroke-width="3"/>
  <ellipse cx="45" cy="58" rx="34" ry="18" fill="#827a8c"/>
  <ellipse cx="45" cy="56" rx="22" ry="12" fill="url(#fgl)"/>
  <path d="M16 60 L20 28 L30 30 L28 62 Z" fill="#7d7686" stroke="#4a4550" stroke-width="2"/>
  <path d="M74 60 L70 30 L60 28 L62 62 Z" fill="#6f6878" stroke="#4a4550" stroke-width="2"/>
  <path d="M19 30 l4 -6 l4 5 l3 -4" fill="none" stroke="#4a4550" stroke-width="2"/>
  <path d="M61 28 l3 -5 l4 5 l3 -3" fill="none" stroke="#4a4550" stroke-width="2"/>
  <path d="M40 50 l4 8 l-3 6" fill="none" stroke="#4a4550" stroke-width="1.5" opacity="0.7"/>
  <circle cx="30" cy="64" r="4" fill="#3c7a4e" opacity="0.8"/>
  <circle cx="58" cy="66" r="5" fill="#3c7a4e" opacity="0.7"/>
  <circle cx="45" cy="58" r="2" fill="#39d4c8"/>
</svg>
